PathFileType	4	(X/Y/Z)	C:\Users\Biomechanik\SynologyDrive\AlexP\Athlete_03\Athlete_3_25_03_31\Static_01\marker_experimental.trc
DataRate	CameraRate	NumFrames	NumMarkers	Units	OrigDataRate	OrigDataStartFrame	OrigNumFrames
200	200	4	80	mm	200	232	37
Frame#	Time	BL			BR			GLAB			RFHD			LFHD			C7			T6			SPINMOL			SPINM2			SPINM3			T12			BELTOL			BELT2			BELT3			SACROL			SACR2			SACR3			LASI			RASI			LPSI			RPSI			LTHOL			LTH2			LTH3			LKNEL			LKNEM			LFIB			LSHAOL			LSHA2			LSHA3			LMALL			LMALM			LHEE			LTOE			LM5			RTHOL			RTH2			RTH3			RKNEL			RKNEM			RFIB			RSHAOL			RSHA2			RSHA3			RMALL			RMALM			RHEE			RTOE			RM5			STRN			XIPH			LACR			LUAOL			LUA2			LUA3			LCUBL			LCUBM			LLAOL			LLA2			LLA3			LWRR			LWRU			RACR			RUAOL			RUA2			RUA3			RCUBL			RCUBM			RLAOL			RLA2			RLA3			RWRR			RWRU			*73			LKJCWK			RKJCWK			RAJCWK			LAJCWK			RHJCWK			LHJCWK
		X1	Y1	Z1	X2	Y2	Z2	X3	Y3	Z3	X4	Y4	Z4	X5	Y5	Z5	X6	Y6	Z6	X7	Y7	Z7	X8	Y8	Z8	X9	Y9	Z9	X10	Y10	Z10	X11	Y11	Z11	X12	Y12	Z12	X13	Y13	Z13	X14	Y14	Z14	X15	Y15	Z15	X16	Y16	Z16	X17	Y17	Z17	X18	Y18	Z18	X19	Y19	Z19	X20	Y20	Z20	X21	Y21	Z21	X22	Y22	Z22	X23	Y23	Z23	X24	Y24	Z24	X25	Y25	Z25	X26	Y26	Z26	X27	Y27	Z27	X28	Y28	Z28	X29	Y29	Z29	X30	Y30	Z30	X31	Y31	Z31	X32	Y32	Z32	X33	Y33	Z33	X34	Y34	Z34	X35	Y35	Z35	X36	Y36	Z36	X37	Y37	Z37	X38	Y38	Z38	X39	Y39	Z39	X40	Y40	Z40	X41	Y41	Z41	X42	Y42	Z42	X43	Y43	Z43	X44	Y44	Z44	X45	Y45	Z45	X46	Y46	Z46	X47	Y47	Z47	X48	Y48	Z48	X49	Y49	Z49	X50	Y50	Z50	X51	Y51	Z51	X52	Y52	Z52	X53	Y53	Z53	X54	Y54	Z54	X55	Y55	Z55	X56	Y56	Z56	X57	Y57	Z57	X58	Y58	Z58	X59	Y59	Z59	X60	Y60	Z60	X61	Y61	Z61	X62	Y62	Z62	X63	Y63	Z63	X64	Y64	Z64	X65	Y65	Z65	X66	Y66	Z66	X67	Y67	Z67	X68	Y68	Z68	X69	Y69	Z69	X70	Y70	Z70	X71	Y71	Z71	X72	Y72	Z72	X73	Y73	Z73	X74	Y74	Z74	X75 	Y75 	Z75 	X76 	Y76 	Z76 	X77 	Y77 	Z77 	X78 	Y78 	Z78 	X79 	Y79 	Z79 	X80 	Y80 	Z80

233	1.16	960.7573	36.1828	-1933.5195	1063.1619	32.9412	86.6632	371.684	1600.4916	-1183.9243	321.2318	1628.1158	-1121.9182	332.2022	1628.4036	-1257.7175	144.337	1439.1866	-1203.7845	nan	nan	nan	102.1456	1230.197	-1236.1604	96.2534	1221.0277	-1186.8225	109.2705	1165.7275	-1221.3917	125.274	1102.7191	-1218.3229	97.334	1082.0227	-1232.7489	96.6839	1078.6294	-1182.537	89.8002	1019.1588	-1212.6	104.8724	959.8522	-1237.0833	105.5573	957.8091	-1185.6925	86.5337	900.5775	-1213.1165	335.4391	934.3801	-1329.2094	327.4501	925.7654	-1081.764	117.7566	977.3237	-1255.8375	118.3154	968.2547	-1171.3724	192.8671	683.8319	-1398.8313	142.9859	630.7919	-1366.3068	189.1406	623.9594	-1385.1316	236.327	487.6337	-1381.7434	254.4032	461.9273	-1262.7029	193.4021	426.0583	-1386.9056	159.413	329.0653	-1402.7657	110.3652	267.4447	-1389.7898	159.1156	267.2223	-1401.3674	142.8089	81.4753	-1381.4207	183.6576	89.6975	-1295.6178	95.0314	67.5715	-1318.2646	309.8978	47.7201	-1348.6459	253.0107	31.2309	-1443.6469	161.347	696.6218	-1023.5517	211.6191	637.6981	-1004.1473	168.2044	635.3734	-1028.8303	201.215	496.1852	-1025.4281	239.1589	464.089	-1147.156	154.2041	432.61	-1028.752	119.7475	347.0697	-1018.5298	149.1303	275.6018	-1003.2708	107.8111	286.4822	-1028.7518	124.9425	85.0908	-1041.8022	189.0521	95.6032	-1114.5308	90.5735	63.7818	-1115.0481	292.6891	47.6231	-1043.7118	216.4143	39.387	-964.169	326.186	1365.809	-1199.416	357.7729	1220.3003	-1201.2595	204.4891	1435.8497	-1349.8308	171.4275	1410.7183	-1488.7633	160.3595	1385.4861	-1549.0928	204.1469	1413.7178	-1545.8063	185.8138	1401.6719	-1653.4042	258.949	1311.4858	-1651.6086	183.9605	1376.1016	-1744.0792	177.4242	1316.7444	-1796.8878	189.1955	1365.234	-1805.0076	202.544	1356.1306	-1909.3215	281.652	1353.4542	-1901.6471	204.5251	1429.9286	-1059.3011	161.3845	1411.8616	-937.4367	178.851	1409.381	-873.8239	132.4263	1389.335	-884.0106	154.5541	1391.7686	-769.0978	211.9017	1297.0209	-769.0916	143.1647	1371.9681	-670.1466	158.6979	1414.3398	-604.2911	142.43	1366.5845	-607.8467	153.917	1378.6846	-515.4061	232.3285	1354.8728	-503.1223	104.1226	1266.9912	-1214.0665	245.3651	474.7805	-1322.2231	220.1869	480.1371	-1086.2921	155.2903	79.8174	-1077.947	161.0068	75.0357	-1338.961	268.0955	851.0536	-1121.2292	273.8329	857.2403	-1298.936
234	1.165	960.7488	36.1892	-1933.5144	1063.1575	32.9366	86.6549	371.51	1600.6138	-1184.1362	321.2866	1628.1351	-1121.86	332.219	1628.4153	-1257.6628	144.3584	1439.1887	-1203.7445	nan	nan	nan	102.1759	1230.2008	-1236.1262	96.3122	1221.0305	-1186.7628	109.2887	1165.7324	-1221.355	125.2844	1102.7399	-1218.2928	97.3238	1082.0524	-1232.6733	96.7662	1078.6486	-1182.4496	89.7954	1019.1844	-1212.5615	104.866	959.8716	-1237.0208	105.5933	957.8273	-1185.6577	86.5614	900.5896	-1213.0332	335.4323	934.381	-1329.2122	327.4822	925.7499	-1081.7677	117.7917	977.327	-1255.7899	118.3346	968.2806	-1171.3188	192.9484	683.7935	-1398.5286	142.9662	630.7919	-1366.2677	189.1207	623.9578	-1385.124	236.309	487.6419	-1381.7372	254.3893	461.9238	-1262.709	193.385	426.0579	-1386.901	159.4038	329.0717	-1402.7601	110.364	267.4425	-1389.785	159.1134	267.2184	-1401.3676	142.7976	81.4787	-1381.4203	183.6586	89.7042	-1295.6174	95.0276	67.5725	-1318.2673	309.9064	47.7424	-1348.6643	253.0385	31.1907	-1443.6234	161.3785	696.6164	-1023.527	211.6343	637.6899	-1004.1292	168.2364	635.3729	-1028.8206	201.2168	496.1852	-1025.4183	239.1482	464.0805	-1147.1421	154.2044	432.6075	-1028.7351	119.7513	347.0638	-1018.5177	149.1338	275.5875	-1003.2675	107.8083	286.4843	-1028.7325	124.9233	85.0777	-1041.8247	189.0136	95.7065	-1114.5482	90.5071	63.8511	-1115.0558	292.6802	47.6217	-1043.7062	216.4109	39.4038	-964.1494	326.196	1365.7939	-1199.3894	357.8145	1220.2919	-1201.2303	204.4813	1435.8361	-1349.7875	171.4351	1410.7117	-1488.7092	160.5155	1385.6802	-1549.0317	204.1635	1413.7148	-1545.7555	185.8012	1401.6451	-1653.3741	258.947	1311.495	-1651.5635	183.9238	1376.0653	-1744.053	177.4317	1316.7202	-1796.8575	189.1909	1365.2227	-1804.9568	202.5353	1356.1215	-1909.2839	281.6374	1353.4664	-1901.6031	204.5301	1429.9282	-1059.2589	161.3934	1411.8635	-937.4128	178.8604	1409.3643	-873.8157	132.437	1389.2994	-884.0058	154.5566	1391.7739	-769.0696	211.9461	1297.0452	-769.0256	143.1601	1371.9819	-670.1222	158.7833	1414.3774	-604.3954	142.4218	1366.6072	-607.8226	153.8626	1378.7379	-515.3587	232.2961	1354.9268	-503.0794	104.1718	1266.989	-1214.0321	245.3492	474.7829	-1322.2231	220.1825	480.1329	-1086.2802	155.2607	79.8626	-1077.9678	161.0018	75.0407	-1338.9606	268.1128	851.0475	-1121.2278	273.8223	857.2461	-1298.935
235	1.17	960.765	36.1788	-1933.5232	1063.1497	32.9259	86.6461	371.7259	1600.5178	-1183.8292	321.3121	1628.1709	-1121.7604	332.242	1628.4249	-1257.6099	144.3872	1439.178	-1203.6993	nan	nan	nan	102.1985	1230.2057	-1236.0732	96.347	1221.0255	-1186.7367	109.3112	1165.7439	-1221.3148	125.3298	1102.7501	-1218.2395	97.3506	1082.0759	-1232.6399	96.7802	1078.66	-1182.4187	89.7524	1019.212	-1212.5571	104.9044	959.8778	-1236.989	105.585	957.8321	-1185.5977	86.5677	900.6121	-1212.9858	335.4225	934.387	-1329.2148	327.5404	925.7462	-1081.7599	117.7914	977.352	-1255.7677	118.35	968.2999	-1171.2748	192.8336	683.7761	-1398.7341	142.9371	630.793	-1366.2583	189.1088	623.963	-1385.0947	236.2708	487.7109	-1381.9469	254.3992	461.9323	-1262.7003	193.3723	426.0716	-1386.8868	159.4055	329.0712	-1402.7682	110.3504	267.4444	-1389.7914	159.1027	267.2281	-1401.3619	142.7985	81.4917	-1381.4064	183.6522	89.7094	-1295.6072	95.0301	67.5709	-1318.2706	309.9063	47.7364	-1348.663	253.0103	31.2223	-1443.6227	161.3761	696.622	-1023.5256	211.6512	637.6938	-1004.1266	168.2392	635.3716	-1028.8132	201.2233	496.1847	-1025.4105	239.1561	464.0928	-1147.1389	154.2159	432.6004	-1028.7349	119.7615	347.0546	-1018.5052	149.1344	275.588	-1003.2696	107.8247	286.4792	-1028.7269	124.9288	85.0675	-1041.812	189.0411	95.6003	-1114.5186	90.5343	63.8278	-1115.0621	292.691	47.6273	-1043.6942	216.4096	39.4087	-964.1252	326.2093	1365.782	-1199.3589	357.8581	1220.2837	-1201.2148	204.4947	1435.8413	-1349.7456	171.4206	1410.7098	-1488.6912	160.2593	1385.2888	-1549.0291	204.1697	1413.6978	-1545.7302	185.8071	1401.6287	-1653.3265	258.9707	1311.5106	-1651.5337	183.9436	1376.0746	-1743.9948	177.4395	1316.7019	-1796.8093	189.1947	1365.2096	-1804.9081	202.536	1356.1129	-1909.2531	281.6366	1353.4957	-1901.5828	204.5386	1429.9117	-1059.1982	161.3957	1411.853	-937.3898	178.8559	1409.3635	-873.7568	132.4368	1389.2793	-883.975	154.5597	1391.7766	-769.0316	211.9091	1296.9744	-769.0695	143.1595	1372.0033	-670.0975	158.8593	1414.4215	-604.3399	142.4068	1366.632	-607.7846	153.8141	1378.7898	-515.3124	232.2593	1354.9655	-503.0408	104.2068	1266.9907	-1213.9977	245.335	474.8216	-1322.3236	220.1897	480.1388	-1086.2747	155.2777	79.8044	-1077.9462	160.9995	75.0495	-1338.9455	268.1546	851.05	-1121.2108	273.8151	857.2554	-1298.919
236	1.175	960.7581	36.2037	-1933.5245	1063.15	32.9189	86.6436	371.7455	1600.5474	-1183.788	321.3445	1628.2019	-1121.6558	332.2663	1628.437	-1257.567	144.4291	1439.1761	-1203.6576	nan	nan	nan	102.2254	1230.2059	-1236.0387	96.382	1221.022	-1186.6927	109.3521	1165.7429	-1221.2706	125.4104	1102.7581	-1218.2004	97.3846	1082.0658	-1232.6047	96.8357	1078.681	-1182.3707	89.8014	1019.2403	-1212.4771	104.8904	959.8945	-1236.9364	105.5797	957.86	-1185.5162	86.5773	900.6308	-1212.9292	335.4203	934.3865	-1329.2184	327.5695	925.7039	-1081.7622	117.5603	977.1921	-1255.8568	118.3821	968.308	-1171.2483	192.8139	683.7675	-1398.7173	142.9125	630.824	-1366.2069	189.0823	623.9791	-1385.0889	236.2781	487.6564	-1381.7361	254.3864	461.9422	-1262.6908	193.3642	426.0704	-1386.8937	159.3985	329.0773	-1402.7625	110.3453	267.4519	-1389.7858	159.104	267.2365	-1401.3619	142.8049	81.4869	-1381.4246	183.6501	89.7165	-1295.6044	95.0292	67.5669	-1318.2654	309.9101	47.7216	-1348.6702	253.0063	31.2283	-1443.6256	161.4222	696.6351	-1023.4916	211.6678	637.6914	-1004.1316	168.2742	635.374	-1028.8048	201.2337	496.1808	-1025.4084	239.1557	464.0981	-1147.1436	154.2302	432.6033	-1028.7126	119.7579	347.056	-1018.5009	149.1463	275.5818	-1003.2639	107.8229	286.4744	-1028.712	124.9263	85.0693	-1041.8042	189.0478	95.6192	-1114.542	90.5771	63.7695	-1115.0402	292.6893	47.6277	-1043.7024	216.4085	39.4379	-964.0969	326.2177	1365.778	-1199.3341	357.9054	1220.2555	-1201.1871	204.4828	1435.849	-1349.7216	171.4099	1410.6807	-1488.6642	160.4534	1385.4235	-1548.957	203.7891	1413.6473	-1545.9652	185.7877	1401.6334	-1653.2694	258.9826	1311.5122	-1651.501	183.9993	1376.0548	-1743.9274	177.456	1316.7041	-1796.7773	189.1841	1365.1906	-1804.8633	202.5165	1356.0992	-1909.2172	281.6346	1353.521	-1901.5532	204.5346	1429.9227	-1059.1677	161.405	1411.8544	-937.3406	178.845	1409.3354	-873.7195	132.3807	1389.2842	-883.8047	154.5715	1391.7814	-769.0192	211.9322	1296.998	-769.0113	143.1551	1372.0221	-670.0823	158.8211	1414.4298	-604.3455	142.4002	1366.6604	-607.766	153.75	1378.832	-515.2709	232.2343	1354.9755	-502.9936	104.2423	1266.993	-1213.9628	245.3323	474.7993	-1322.2134	220.1947	480.1395	-1086.276	155.2796	79.8147	-1077.9542	161.0017	75.0508	-1338.9564	268.2062	850.9924	-1121.2189	273.8442	857.2278	-1298.927
